  <svg id="my-name-svg-main"
    viewBox="-55 -40 1350 200"
    xmlns="http://www.w3.org/2000/svg"
    aria-labelledby="nameTitle nameDesc" role="img"
  >
   <title id="nameTitle">Preben Sørensen</title>
   <desc id="nameDesc">A svg illustration of my name.</desc>
    <g
      id="my-name-svg"
      stroke-linecap="round"
      fill-rule="evenodd"
      font-size="9pt"
      stroke="#e2e2e2"
      stroke-width="0.70mm"
      fill="#d4d4d4"
      style="stroke:hsl(0, 0%, 83%);stroke-width:0.35mm;fill:hsla(0, 0%, 83%, 0)"
      
    >
      <path
        d="M 563.25 83.1 L 577.8 83.1 Q 578.55 90.45 583.875 95.475 A 17.002 17.002 0 0 0 590.419 99.244 Q 593.057 100.098 596.258 100.371 A 36.93 36.93 0 0 0 599.4 100.5 Q 607.15 100.5 612.294 97.419 A 17.534 17.534 0 0 0 614.775 95.625 A 15.674 15.674 0 0 0 620.366 84.278 A 19.965 19.965 0 0 0 620.4 83.1 A 17.784 17.784 0 0 0 619.901 78.776 A 12.766 12.766 0 0 0 617.1 73.35 A 20.925 20.925 0 0 0 609.462 67.901 A 24.461 24.461 0 0 0 608.85 67.65 A 75.883 75.883 0 0 0 605.419 66.402 Q 601.275 64.997 595.5 63.45 Q 585.15 60.75 578.925 58.05 A 26.37 26.37 0 0 1 569.121 50.631 A 31.286 31.286 0 0 1 568.275 49.575 A 20.129 20.129 0 0 1 564.892 42.578 Q 563.85 38.782 563.85 34.05 A 28.549 28.549 0 0 1 565.343 24.7 A 25.69 25.69 0 0 1 568.2 18.9 A 27.633 27.633 0 0 1 578.05 9.898 A 33.978 33.978 0 0 1 580.425 8.7 A 39.237 39.237 0 0 1 591.177 5.606 A 51.111 51.111 0 0 1 598.5 5.1 A 48.157 48.157 0 0 1 609.073 6.199 A 33.443 33.443 0 0 1 622.575 12.45 Q 631.95 19.8 633.15 31.95 L 618.15 31.95 A 14.899 14.899 0 0 0 614.658 24.139 A 21.223 21.223 0 0 0 611.85 21.375 A 19.194 19.194 0 0 0 604.23 17.614 Q 601.01 16.8 597.15 16.8 A 26.994 26.994 0 0 0 591.008 17.462 A 18.9 18.9 0 0 0 583.2 21.225 A 14.436 14.436 0 0 0 577.963 30.943 A 20.937 20.937 0 0 0 577.8 33.6 A 16.498 16.498 0 0 0 578.292 37.733 A 12.181 12.181 0 0 0 581.025 42.9 Q 584.25 46.5 588.975 48.375 A 77.555 77.555 0 0 0 592.302 49.598 Q 595.8 50.803 600.633 52.191 A 280.286 280.286 0 0 0 602.25 52.65 A 189.057 189.057 0 0 1 608.887 54.601 Q 611.826 55.527 614.33 56.446 A 78.302 78.302 0 0 1 618.9 58.275 Q 625.2 61.05 629.7 66.825 Q 633.612 71.845 634.123 79.982 A 40.155 40.155 0 0 1 634.2 82.5 Q 634.2 90.15 630.15 96.9 A 28.062 28.062 0 0 1 622.313 105.286 A 35.875 35.875 0 0 1 618.15 107.85 A 35.552 35.552 0 0 1 607.403 111.409 A 47.903 47.903 0 0 1 599.4 112.05 A 49.917 49.917 0 0 1 589.021 111.014 A 40.117 40.117 0 0 1 580.875 108.375 A 33.865 33.865 0 0 1 573.184 103.666 A 28.564 28.564 0 0 1 568.05 98.175 A 25.908 25.908 0 0 1 563.286 84.161 A 31.583 31.583 0 0 1 563.25 83.1 Z M 503.85 62.55 L 503.85 111 L 490.35 111 L 490.35 64.5 Q 490.35 52.2 484.2 45.675 A 20.313 20.313 0 0 0 472.777 39.617 A 29.57 29.57 0 0 0 467.4 39.15 A 27.949 27.949 0 0 0 459.922 40.099 A 20.66 20.66 0 0 0 450.225 45.9 Q 444.831 51.612 444.001 61.727 A 46.786 46.786 0 0 0 443.85 65.55 L 443.85 111 L 430.2 111 L 430.2 28.8 L 443.85 28.8 L 443.85 40.5 Q 447.9 34.2 454.875 30.75 A 33.633 33.633 0 0 1 468.172 27.354 A 39.663 39.663 0 0 1 470.25 27.3 A 40.457 40.457 0 0 1 481.099 28.685 A 30.686 30.686 0 0 1 494.55 36.375 Q 503.107 44.725 503.791 59.868 A 59.458 59.458 0 0 1 503.85 62.55 Z M 972.9 62.55 L 972.9 111 L 959.4 111 L 959.4 64.5 Q 959.4 52.2 953.25 45.675 A 20.313 20.313 0 0 0 941.827 39.617 A 29.57 29.57 0 0 0 936.45 39.15 A 27.949 27.949 0 0 0 928.972 40.099 A 20.66 20.66 0 0 0 919.275 45.9 Q 913.881 51.612 913.051 61.727 A 46.786 46.786 0 0 0 912.9 65.55 L 912.9 111 L 899.25 111 L 899.25 28.8 L 912.9 28.8 L 912.9 40.5 Q 916.95 34.2 923.925 30.75 A 33.633 33.633 0 0 1 937.222 27.354 A 39.663 39.663 0 0 1 939.3 27.3 A 40.457 40.457 0 0 1 950.149 28.685 A 30.686 30.686 0 0 1 963.6 36.375 Q 972.157 44.725 972.841 59.868 A 59.458 59.458 0 0 1 972.9 62.55 Z M 1240.2 62.55 L 1240.2 111 L 1226.7 111 L 1226.7 64.5 Q 1226.7 52.2 1220.55 45.675 A 20.313 20.313 0 0 0 1209.127 39.617 A 29.57 29.57 0 0 0 1203.75 39.15 A 27.949 27.949 0 0 0 1196.272 40.099 A 20.66 20.66 0 0 0 1186.575 45.9 Q 1181.181 51.612 1180.351 61.727 A 46.786 46.786 0 0 0 1180.2 65.55 L 1180.2 111 L 1166.55 111 L 1166.55 28.8 L 1180.2 28.8 L 1180.2 40.5 Q 1184.25 34.2 1191.225 30.75 A 33.633 33.633 0 0 1 1204.522 27.354 A 39.663 39.663 0 0 1 1206.6 27.3 A 40.457 40.457 0 0 1 1217.449 28.685 A 30.686 30.686 0 0 1 1230.9 36.375 Q 1239.457 44.725 1240.141 59.868 A 59.458 59.458 0 0 1 1240.2 62.55 Z M 990.75 86.85 L 1004.85 86.85 A 13.733 13.733 0 0 0 1010.131 96.514 A 17.99 17.99 0 0 0 1010.625 96.9 Q 1015.36 100.469 1022.796 100.772 A 34.465 34.465 0 0 0 1024.2 100.8 A 28.561 28.561 0 0 0 1029.068 100.411 Q 1031.707 99.954 1033.832 98.96 A 14.362 14.362 0 0 0 1036.5 97.35 A 12.346 12.346 0 0 0 1039.307 94.412 A 10.163 10.163 0 0 0 1041 88.65 Q 1041 83.25 1036.2 80.625 Q 1031.4 78 1021.35 75.45 A 159.125 159.125 0 0 1 1015.209 73.715 Q 1010.125 72.161 1006.425 70.575 Q 1000.65 68.1 996.525 63.225 A 16.864 16.864 0 0 1 993.004 56.036 Q 992.419 53.524 992.401 50.59 A 30.428 30.428 0 0 1 992.4 50.4 Q 992.4 44.1 996.15 38.85 A 23.473 23.473 0 0 1 1002.611 32.777 A 30.863 30.863 0 0 1 1006.8 30.525 A 35.048 35.048 0 0 1 1016.187 27.882 A 45.236 45.236 0 0 1 1022.55 27.45 Q 1035.127 27.45 1043.247 33.308 A 27.229 27.229 0 0 1 1044.6 34.35 A 24.189 24.189 0 0 1 1053.328 50.33 A 33.421 33.421 0 0 1 1053.6 53.25 L 1039.95 53.25 A 15.385 15.385 0 0 0 1038.589 47.763 A 13.877 13.877 0 0 0 1034.775 42.9 A 16.236 16.236 0 0 0 1028.464 39.753 Q 1025.594 39 1022.1 39 Q 1016.563 39 1012.729 40.787 A 14.157 14.157 0 0 0 1010.4 42.15 Q 1006.05 45.3 1006.05 50.4 A 10.236 10.236 0 0 0 1006.552 53.671 A 8.647 8.647 0 0 0 1008.675 57.075 A 17.869 17.869 0 0 0 1012.812 60.128 A 22.546 22.546 0 0 0 1015.275 61.275 A 63.606 63.606 0 0 0 1018.06 62.296 Q 1020.976 63.296 1024.966 64.426 A 219.568 219.568 0 0 0 1026.3 64.8 A 176.368 176.368 0 0 1 1031.994 66.441 Q 1037.058 67.999 1040.7 69.525 Q 1046.25 71.85 1050.225 76.5 A 16.631 16.631 0 0 1 1053.736 83.577 A 23.945 23.945 0 0 1 1054.35 88.65 Q 1054.35 95.4 1050.6 100.8 A 23.673 23.673 0 0 1 1043.434 107.477 A 30.172 30.172 0 0 1 1040.025 109.275 A 34.356 34.356 0 0 1 1030.766 111.909 A 44.956 44.956 0 0 1 1024.35 112.35 A 47.504 47.504 0 0 1 1014.86 111.44 A 38.044 38.044 0 0 1 1007.4 109.125 A 31.578 31.578 0 0 1 1000.343 104.997 A 26.24 26.24 0 0 1 995.55 100.125 Q 991.2 94.35 990.75 86.85 Z M 217.35 75 L 151.65 75 A 33.607 33.607 0 0 0 153.172 83.364 A 24.011 24.011 0 0 0 159.975 93.975 Q 167.55 100.8 178.35 100.8 A 31.368 31.368 0 0 0 185.058 100.119 A 22.288 22.288 0 0 0 193.125 96.675 Q 199.05 92.55 201.45 85.65 L 216.15 85.65 Q 212.85 97.5 202.95 104.925 A 36.473 36.473 0 0 1 187.48 111.551 A 49.988 49.988 0 0 1 178.35 112.35 A 44.606 44.606 0 0 1 165.649 110.595 A 38.808 38.808 0 0 1 157.425 107.1 Q 148.2 101.85 142.95 92.175 Q 137.7 82.5 137.7 69.75 Q 137.7 57 142.8 47.4 Q 147.9 37.8 157.125 32.625 Q 166.35 27.45 178.35 27.45 A 45.63 45.63 0 0 1 189.939 28.868 A 37.81 37.81 0 0 1 199.05 32.55 Q 208.05 37.65 212.925 46.575 Q 217.8 55.5 217.8 66.75 A 75.313 75.313 0 0 1 217.624 71.801 A 89.424 89.424 0 0 1 217.35 75 Z M 411.75 75 L 346.05 75 A 33.607 33.607 0 0 0 347.572 83.364 A 24.011 24.011 0 0 0 354.375 93.975 Q 361.95 100.8 372.75 100.8 A 31.368 31.368 0 0 0 379.458 100.119 A 22.288 22.288 0 0 0 387.525 96.675 Q 393.45 92.55 395.85 85.65 L 410.55 85.65 Q 407.25 97.5 397.35 104.925 A 36.473 36.473 0 0 1 381.88 111.551 A 49.988 49.988 0 0 1 372.75 112.35 A 44.606 44.606 0 0 1 360.049 110.595 A 38.808 38.808 0 0 1 351.825 107.1 Q 342.6 101.85 337.35 92.175 Q 332.1 82.5 332.1 69.75 Q 332.1 57 337.2 47.4 Q 342.3 37.8 351.525 32.625 Q 360.75 27.45 372.75 27.45 A 45.63 45.63 0 0 1 384.339 28.868 A 37.81 37.81 0 0 1 393.45 32.55 Q 402.45 37.65 407.325 46.575 Q 412.2 55.5 412.2 66.75 A 75.313 75.313 0 0 1 412.024 71.801 A 89.424 89.424 0 0 1 411.75 75 Z M 880.8 75 L 815.1 75 A 33.607 33.607 0 0 0 816.622 83.364 A 24.011 24.011 0 0 0 823.425 93.975 Q 831 100.8 841.8 100.8 A 31.368 31.368 0 0 0 848.508 100.119 A 22.288 22.288 0 0 0 856.575 96.675 Q 862.5 92.55 864.9 85.65 L 879.6 85.65 Q 876.3 97.5 866.4 104.925 A 36.473 36.473 0 0 1 850.93 111.551 A 49.988 49.988 0 0 1 841.8 112.35 A 44.606 44.606 0 0 1 829.099 110.595 A 38.808 38.808 0 0 1 820.875 107.1 Q 811.65 101.85 806.4 92.175 Q 801.15 82.5 801.15 69.75 Q 801.15 57 806.25 47.4 Q 811.35 37.8 820.575 32.625 Q 829.8 27.45 841.8 27.45 A 45.63 45.63 0 0 1 853.389 28.868 A 37.81 37.81 0 0 1 862.5 32.55 Q 871.5 37.65 876.375 46.575 Q 881.25 55.5 881.25 66.75 A 75.313 75.313 0 0 1 881.074 71.801 A 89.424 89.424 0 0 1 880.8 75 Z M 1148.1 75 L 1082.4 75 A 33.607 33.607 0 0 0 1083.922 83.364 A 24.011 24.011 0 0 0 1090.725 93.975 Q 1098.3 100.8 1109.1 100.8 A 31.368 31.368 0 0 0 1115.808 100.119 A 22.288 22.288 0 0 0 1123.875 96.675 Q 1129.8 92.55 1132.2 85.65 L 1146.9 85.65 Q 1143.6 97.5 1133.7 104.925 A 36.473 36.473 0 0 1 1118.23 111.551 A 49.988 49.988 0 0 1 1109.1 112.35 A 44.606 44.606 0 0 1 1096.399 110.595 A 38.808 38.808 0 0 1 1088.175 107.1 Q 1078.95 101.85 1073.7 92.175 Q 1068.45 82.5 1068.45 69.75 Q 1068.45 57 1073.55 47.4 Q 1078.65 37.8 1087.875 32.625 Q 1097.1 27.45 1109.1 27.45 A 45.63 45.63 0 0 1 1120.689 28.868 A 37.81 37.81 0 0 1 1129.8 32.55 Q 1138.8 37.65 1143.675 46.575 Q 1148.55 55.5 1148.55 66.75 A 75.313 75.313 0 0 1 1148.374 71.801 A 89.424 89.424 0 0 1 1148.1 75 Z M 249.45 95.85 L 249.45 111 L 235.8 111 L 235.8 0 L 249.45 0 L 249.45 44.1 A 31.281 31.281 0 0 1 258.85 33.939 A 38.409 38.409 0 0 1 261.75 32.1 A 35.209 35.209 0 0 1 276.32 27.62 A 43.401 43.401 0 0 1 280.2 27.45 A 40.273 40.273 0 0 1 293.196 29.501 A 36.586 36.586 0 0 1 300.15 32.7 Q 309 37.95 314.1 47.475 A 42.6 42.6 0 0 1 318.597 61.301 A 55.24 55.24 0 0 1 319.2 69.6 A 52.056 52.056 0 0 1 317.761 82.066 A 43.149 43.149 0 0 1 314.1 91.8 A 38.451 38.451 0 0 1 304.298 103.978 A 37.094 37.094 0 0 1 300.075 106.95 Q 291.15 112.35 280.2 112.35 Q 269.55 112.35 261.525 107.7 A 34.799 34.799 0 0 1 254.12 102.04 A 29.183 29.183 0 0 1 249.45 95.85 Z M 733.2 28.8 L 722.25 40.8 A 39.872 39.872 0 0 1 729.338 52.788 A 45.388 45.388 0 0 1 729.675 53.7 A 45.43 45.43 0 0 1 732.131 65.419 A 54.468 54.468 0 0 1 732.3 69.75 A 49.113 49.113 0 0 1 730.894 81.731 A 40.047 40.047 0 0 1 726.675 92.175 Q 721.05 101.85 711.45 107.1 Q 701.85 112.35 690.15 112.35 Q 675.6 112.35 664.5 104.1 L 658.2 111 L 648.45 111 L 659.25 99.15 A 41.665 41.665 0 0 1 651.991 86.487 A 46.992 46.992 0 0 1 651.825 86.025 Q 649.2 78.6 649.2 69.75 A 49.282 49.282 0 0 1 650.7 57.361 A 40.676 40.676 0 0 1 654.675 47.475 Q 660.15 37.8 669.6 32.625 A 42.494 42.494 0 0 1 687.771 27.536 A 51.034 51.034 0 0 1 690.75 27.45 A 45.031 45.031 0 0 1 705.704 29.863 A 40.07 40.07 0 0 1 717 36 L 723.45 28.8 L 733.2 28.8 Z M 33.75 67.35 L 13.65 67.35 L 13.65 111 L 0 111 L 0 6.45 L 33.75 6.45 Q 51.45 6.45 60.675 15 Q 69.9 23.55 69.9 37.05 A 31.26 31.26 0 0 1 67.84 48.569 A 28.525 28.525 0 0 1 60.975 58.725 A 27.629 27.629 0 0 1 50.755 64.844 Q 46.516 66.332 41.316 66.936 A 65.603 65.603 0 0 1 33.75 67.35 Z M 127.05 27.3 L 127.05 41.4 L 123.45 41.4 A 30.281 30.281 0 0 0 114.09 42.723 Q 100.507 47.136 100.5 66.279 A 55.358 55.358 0 0 0 100.5 66.3 L 100.5 111 L 86.85 111 L 86.85 28.8 L 100.5 28.8 L 100.5 42.15 Q 104.1 35.1 110.775 31.2 A 27.566 27.566 0 0 1 119.21 28.046 Q 122.622 27.347 126.527 27.303 A 46.675 46.675 0 0 1 127.05 27.3 Z M 790.5 27.3 L 790.5 41.4 L 786.9 41.4 A 30.281 30.281 0 0 0 777.54 42.723 Q 763.957 47.136 763.95 66.279 A 55.358 55.358 0 0 0 763.95 66.3 L 763.95 111 L 750.3 111 L 750.3 28.8 L 763.95 28.8 L 763.95 42.15 Q 767.55 35.1 774.225 31.2 A 27.566 27.566 0 0 1 782.66 28.046 Q 786.072 27.347 789.977 27.303 A 46.675 46.675 0 0 1 790.5 27.3 Z M 305.25 69.6 A 38.917 38.917 0 0 0 304.426 61.409 A 29.782 29.782 0 0 0 301.5 53.4 A 27.151 27.151 0 0 0 295.703 45.989 A 24.966 24.966 0 0 0 291.375 42.9 Q 285 39.3 277.35 39.3 Q 269.85 39.3 263.475 42.975 A 26.445 26.445 0 0 0 254.142 52.139 A 32.022 32.022 0 0 0 253.275 53.625 A 30.843 30.843 0 0 0 249.824 64.244 A 39.385 39.385 0 0 0 249.45 69.75 Q 249.45 79.05 253.275 86.025 A 28.339 28.339 0 0 0 258.884 93.3 A 25.598 25.598 0 0 0 263.475 96.675 Q 269.85 100.35 277.35 100.35 Q 285 100.35 291.375 96.675 A 26.018 26.018 0 0 0 300.774 87.304 A 31.453 31.453 0 0 0 301.5 86.025 A 30.923 30.923 0 0 0 304.72 76.356 A 41.361 41.361 0 0 0 305.25 69.6 Z M 33.75 17.7 L 13.65 17.7 L 13.65 56.1 L 33.75 56.1 Q 45.15 56.1 50.55 51.15 A 16.068 16.068 0 0 0 55.312 42.844 Q 55.95 40.195 55.95 37.05 Q 55.95 17.7 33.75 17.7 Z M 668.4 89.25 L 708.3 45.45 A 25.514 25.514 0 0 0 693.801 39.45 A 33.402 33.402 0 0 0 690.6 39.3 A 28.866 28.866 0 0 0 679.761 41.319 A 27.562 27.562 0 0 0 676.875 42.675 A 23.932 23.932 0 0 0 668.393 50.486 A 29.943 29.943 0 0 0 666.9 52.95 A 29.571 29.571 0 0 0 663.974 61.128 Q 663.15 65.109 663.15 69.75 Q 663.15 81.3 668.4 89.25 Z M 713.1 50.85 L 673.2 94.65 Q 680.25 100.35 690.15 100.35 Q 697.5 100.35 703.95 96.9 A 25.731 25.731 0 0 0 713.309 88.272 A 31.475 31.475 0 0 0 714.375 86.55 A 28.751 28.751 0 0 0 717.589 77.838 Q 718.35 74.081 718.35 69.75 A 41.691 41.691 0 0 0 717.612 61.678 Q 716.631 56.71 714.348 52.784 A 24.588 24.588 0 0 0 713.1 50.85 Z M 151.8 63.9 L 203.7 63.9 Q 203.7 56.1 200.25 50.475 Q 196.8 44.85 190.875 41.925 A 28.587 28.587 0 0 0 179.969 39.071 A 34.056 34.056 0 0 0 177.75 39 A 26.922 26.922 0 0 0 167.689 40.835 A 24.96 24.96 0 0 0 160.125 45.6 A 24.64 24.64 0 0 0 152.995 57.323 A 35.152 35.152 0 0 0 151.8 63.9 Z M 346.2 63.9 L 398.1 63.9 Q 398.1 56.1 394.65 50.475 Q 391.2 44.85 385.275 41.925 A 28.587 28.587 0 0 0 374.369 39.071 A 34.056 34.056 0 0 0 372.15 39 A 26.922 26.922 0 0 0 362.089 40.835 A 24.96 24.96 0 0 0 354.525 45.6 A 24.64 24.64 0 0 0 347.395 57.323 A 35.152 35.152 0 0 0 346.2 63.9 Z M 815.25 63.9 L 867.15 63.9 Q 867.15 56.1 863.7 50.475 Q 860.25 44.85 854.325 41.925 A 28.587 28.587 0 0 0 843.419 39.071 A 34.056 34.056 0 0 0 841.2 39 A 26.922 26.922 0 0 0 831.139 40.835 A 24.96 24.96 0 0 0 823.575 45.6 A 24.64 24.64 0 0 0 816.445 57.323 A 35.152 35.152 0 0 0 815.25 63.9 Z M 1082.55 63.9 L 1134.45 63.9 Q 1134.45 56.1 1131 50.475 Q 1127.55 44.85 1121.625 41.925 A 28.587 28.587 0 0 0 1110.719 39.071 A 34.056 34.056 0 0 0 1108.5 39 A 26.922 26.922 0 0 0 1098.439 40.835 A 24.96 24.96 0 0 0 1090.875 45.6 A 24.64 24.64 0 0 0 1083.745 57.323 A 35.152 35.152 0 0 0 1082.55 63.9 Z"
        vector-effect="non-scaling-stroke"
      />
    </g>
  </svg>