<svg xmlns="http://www.w3.org/2000/svg" viewBox="0 0 800 500">
  <defs>
    <filter id="waveShadow" x="-20%" y="-20%" width="140%" height="140%">
      <feGaussianBlur in="SourceAlpha" stdDeviation="3" result="blur"/>
      <feOffset in="blur" dx="2" dy="-1" result="offsetBlur"/>
      <feMerge>
        <feMergeNode in="offsetBlur"/>
        <feMergeNode in="SourceGraphic"/>
      </feMerge>
    </filter>
  </defs>
  <style>
    .wave-path {
      transform: translateZ(0); /* Force GPU acceleration */
      filter: url(#waveShadow); /* Apply shadow filter */
    }

    .moving-path1 {
      animation: move1 264s infinite;
      fill: #2B2B2B;
    }

    @keyframes move1 {
      0% {
        transform: translate(0, 0) translateZ(0);
      }
      50% {
        transform: translate(-400px, 38px) translateZ(0);
      }
      100% {
        transform: translate(-800px, 0) translateZ(0);
      }
    }

    .moving-path2 {
      animation: move2 283s infinite;
      fill: #262626;
    }

    @keyframes move2 {
      0% {
        transform: translate(-800px, 0) translateZ(0);
      }
      50% {
        transform: translate(-400px, -42px) translateZ(0);
      }
      100% {
        transform: translate(0, 0) translateZ(0);
      }
    }

    .moving-path3 {
      animation: move3 251s infinite;
      fill: #212121;
    }

    @keyframes move3 {
      0% {
        transform: translate(0, 0) translateZ(0);
      }
      50% {
        transform: translate(-400px, 32px) translateZ(0);
      }
      100% {
        transform: translate(-800px, 0) translateZ(0);
      }
    }

    .moving-path4 {
      animation: move4 178s infinite;
      fill: #1C1C1C;
    }

    @keyframes move4 {
      0% {
        transform: translate(-800px, 0) translateZ(0);
      }
      50% {
        transform: translate(-400px, -15px) translateZ(0);
      }
      100% {
        transform: translate(0, 0) translateZ(0);
      }
    }

    .moving-path5 {
      animation: move5 193s infinite;
      fill: #171717;
    }

    @keyframes move5 {
      0% {
        transform: translate(0, 0) translateZ(0);
      }
      50% {
        transform: translate(-400px, 29px) translateZ(0);
      }
      100% {
        transform: translate(-800px, 0) translateZ(0);
      }
    }

    .moving-path6 {
      animation: move6 222s infinite;
      fill: #121212;
    }

    @keyframes move6 {
      0% {
        transform: translate(-800px, 0) translateZ(0);
      }
      50% {
        transform: translate(-400px, -31px) translateZ(0);
      }
      100% {
        transform: translate(0, 0) translateZ(0);
      }
    }

    .moving-path7 {
      animation: move7 276s infinite;
      fill: #0D0D0D;
    }

    @keyframes move7 {
      0% {
        transform: translate(0, 0) translateZ(0);
      }
      50% {
        transform: translate(-400px, 40px) translateZ(0);
      }
      100% {
        transform: translate(-800px, 0) translateZ(0);
      }
    }

    .moving-path8 {
      animation: move8 244s infinite;
      fill: #080808;
    }

    @keyframes move8 {
      0% {
        transform: translate(-800px, 0) translateZ(0);
      }
      50% {
        transform: translate(-400px, -36px) translateZ(0);
      }
      100% {
        transform: translate(0, 0) translateZ(0);
      }
    }

    .moving-path9 {
      animation: move9 217s infinite;
      fill: #030303;
    }

    @keyframes move9 {
      0% {
        transform: translate(0, 0) translateZ(0);
      }
      50% {
        transform: translate(-400px, 28px) translateZ(0);
      }
      100% {
        transform: translate(-800px, 0) translateZ(0);
      }
    }

    .moving-path10 {
      animation: move10 291s infinite;
      fill: #000000;
    }

    @keyframes move10 {
      0% {
        transform: translate(-800px, 0) translateZ(0);
      }
      50% {
        transform: translate(-400px, -41px) translateZ(0);
      }
      100% {
        transform: translate(0, 0) translateZ(0);
      }
    }
  </style>

  <rect y="-0.5" width="800" height="500" fill="#121212"/>
  <path class="wave-path moving-path1" d="M0 170M0 170C100 170 110 275 221 240S357 344 471 330 670 170 800 170C900 170 910 275 1021 240S1157 344 1271 330 1470 170 1600 170V600H0Z"/>
  <path class="wave-path moving-path2" d="M0 255c50 0 100 70 170 45s130-60 200-65c65-5 130 45 200 65s195-45 230-45c50 0 100 70 170 45s130-60 200-65c65-5 130 45 200 65s195-45 230-45V500H0Z"/>
  <path class="wave-path moving-path3" d="M0 500V330c80 0 98 91 197 91s99-49 165-49 125 53 193 49c109 3 165-91 245-91s98 91 197 91 99-49 165-49 125 53 193 49c109 3 165-91 245-91V500Z"/>
  <path class="wave-path moving-path4" d="M0 235c40 0 105 11 168 34 103 40 167 71 232 81s135-15 200-45c70-25 131-70 200-70c40 0 105 11 168 34 103 40 167 71 232 81s135-15 200-45c70-25 131-70 200-70V500H0Z"/>
  <path class="wave-path moving-path5" d="M0 365c33 0 98 1 173 13 103 18 161 56 226 68s152-2 201-26c60-32 136-55 200-55c33 0 98 1 173 13 103 18 161 56 226 68s152-2 201-26c60-32 136-55 200-55V550H0Z"/>
  <path class="wave-path moving-path6" d="M0 410c188 0 172-110 400-110S611 410 800 410c188 0 172-110 400-110s211 110 400 110V550H0Z"/>
  <path class="wave-path moving-path7" d="M0 350c67 0 133 35 200 37s133-13 200-10s129 24 200 33s134-60 200-60c67 0 133 35 200 37s133-13 200-10s129 24 200 33s134-60 200-60V550H0Z"/>
  <path class="wave-path moving-path8" d="M0 443c67 0 133-47 200-52s133 7 200 12 133 5 200 12 133 28 200 28 133-47 200-52 133 7 200 12 133 5 200 12 133 28 200 28V550H0Z"/>
  <path class="wave-path moving-path9" d="M0 450c67 0 133 12 200 6s133-24 200-36s133-17 200-13s133 43 200 43s133 12 200 6s133-24 200-36s133-17 200-13s133 43 200 43V550H0Z"/>
  <path class="wave-path moving-path10" d="M0 434c67 0 133 3 200 6s133 7 200 5 133-8 200-11 133 0 200 0 133 3 200 6 133 7 200 5 133-8 200-11 133 0 200 0V550H0Z"/>
</svg>
