<svg version="1.1" xmlns="http://www.w3.org/2000/svg" xmlns:xlink="http://www.w3.org/1999/xlink" x="0px" y="0px" viewBox="0 0 800 500" style="enable-background:new 0 0 800 500;" xml:space="preserve">
  <g id="_x32_13">
    <g>
      <g>
        <rect y="-0.5" style="fill:#121212;" width="800" height="500"/>
        <path style="fill:#2B2B2B;" d="M0 170M0 170C100 170 110 275 221 240S357 344 471 330 670 170 800 170C900 170 910 275 1021 240S1157 344 1271 330 1470 170 1600 170V600H0Z">
          <animateTransform attributeName="transform" type="translate" dur="10s" repeatCount="indefinite" keyTimes="0;0.5;1" values="0 0; -400 50; -800 0"/>
        </path>
        <path style="fill:#262626;" d="M0 255c50 0 100 70 170 45s130-60 200-65c65-5 130 45 200 65s195-45 230-45c50 0 100 70 170 45s130-60 200-65c65-5 130 45 200 65s195-45 230-45V500H0Z">
          <animateTransform attributeName="transform" type="translate" dur="10s" repeatCount="indefinite" keyTimes="0;0.5;1" values="-800 0; -400 -50; 0 0"/>
        </path>
        <path style="fill:#212121;" d="M0 500V330c80 0 98 91 197 91s99-49 165-49 125 53 193 49c109 3 165-91 245-91s98 91 197 91 99-49 165-49 125 53 193 49c109 3 165-91 245-91V500Z">
          <animateTransform attributeName="transform" type="translate" dur="10s" repeatCount="indefinite" keyTimes="0;0.5;1" values="0 0; -400 50; -800 0"/>
        </path>
        <path style="fill:#1C1C1C;" d="M0 235c40 0 105 11 168 34 103 40 167 71 232 81s135-15 200-45c70-25 131-70 200-70
c40 0 105 11 168 34 103 40 167 71 232 81s135-15 200-45c70-25 131-70 200-70V500H0Z">
          <animateTransform attributeName="transform" type="translate" dur="10s" repeatCount="indefinite" keyTimes="0;0.5;1" values="-800 0; -400 -50; 0 0"/>
        </path>
        <path style="fill:#171717;" d="M0 365c33 0 98 1 173 13 103 18 161 56 226 68s152-2 201-26c60-32 136-55 200-55
c33 0 98 1 173 13 103 18 161 56 226 68s152-2 201-26c60-32 136-55 200-55V550H0Z">
          <animateTransform attributeName="transform" type="translate" dur="10s" repeatCount="indefinite" keyTimes="0;0.5;1" values="0 0; -400 50; -800 0"/>
        </path>
        <path style="fill:#121212;" d="M0 410c188 0 172-110 400-110S611 410 800 410c188 0 172-110 400-110s211 110 400 110V550H0Z">
          <animateTransform attributeName="transform" type="translate" dur="10s" repeatCount="indefinite" keyTimes="0;0.5;1" values="-800 0; -400 -50; 0 0"/>
        </path>
        <path style="fill:#0D0D0D;" d="M0 350c67 0 133 35 200 37s133-13 200-10 129 24 200 33 134-60 200-60
c67 0 133 35 200 37s133-13 200-10 129 24 200 33 134-60 200-60V550H0Z">
          <animateTransform attributeName="transform" type="translate" dur="10s" repeatCount="indefinite" keyTimes="0;0.5;1" values="0 0; -400 50; -800 0"/>
        </path>
        <path style="fill:#080808;" d="M0,439.5l33.3-10.801c33.4-10.898,100-32.5,166.7-37.5s133.3,6.602,200,12.102
				s133.3,4.898,200,11.5C666.7,421.5,733.3,435.5,766.7,442.5l33.3,7v51h-33.3c-33.4,0-100,0-166.7,0s-133.3,0-200,0
				s-133.3,0-200,0s-133.3,0-166.7,0H0V439.5z"/>
        <path style="fill:#030303;" d="M0,449.5l33.3,3.199c33.4,3.102,100,9.5,166.7,3.5S333.3,431.801,400,420s133.3-17.199,200-13.199
				s133.3,17.398,166.7,24L800,437.5v63h-33.3c-33.4,0-100,0-166.7,0s-133.3,0-200,0s-133.3,0-200,0s-133.3,0-166.7,0H0V449.5z"/>
        <path style="fill:#000000;" d="M0,432.5l33.3,1c33.4,1,100,3,166.7,6s133.3,7,200,5.5s133.3-8.5,200-11.199
				c66.7-2.602,133.3-1,166.7-0.102L800,434.5v66h-33.3c-33.4,0-100,0-166.7,0s-133.3,0-200,0s-133.3,0-200,0s-133.3,0-166.7,0H0
				V432.5z"/>
      </g>
    </g>
  </g>
  <g id="Layer_1"/>
</svg>
