<svg version="1.1" xmlns="http://www.w3.org/2000/svg" xmlns:xlink="http://www.w3.org/1999/xlink" x="0px" y="0px" viewBox="0 0 800 500" style="enable-background:new 0 0 800 500;" xml:space="preserve">
  <g id="_x32_13">
    <g>
      <g>
        <rect y="-0.5" style="fill:#121212;" width="800" height="500"/>
        <path style="fill:#2B2B2B;" d="M0 170M0 170C100 170 110 275 221 240S357 344 471 330 670 170 800 170C900 170 910 275 1021 240S1157 344 1271 330 1470 170 1600 170V600H0Z">
          <animateTransform
            attributeName="transform"
            type="translate"
            from="0 0"
            to="-800 0"
            dur="60s"
            repeatCount="indefinite"
          />
        </path>
        <path style="fill:#262626;" d="M0 255c50 0 100 70 170 45s130-60 200-65c65-5 130 45 200 65s195-45 230-45c50 0 100 70 170 45s130-60 200-65c65-5 130 45 200 65s195-45 230-45V500H0Z">
          <animateTransform
            attributeName="transform"
            type="translate"
            from="-800 0"
            to="0 0"
            dur="60s"
            repeatCount="indefinite"
          />
          </path>
        <path style="fill:#212121;" d="M0 500V330c80 0 98 91 197 91s99-49 165-49 125 53 193 49c109 3 165-91 245-91s98 91 197 91 99-49 165-49 125 53 193 49c109 3 165-91 245-91V500Z">
          <animateTransform
            attributeName="transform"
            type="translate"
            from="0 0"
            to="-800 0"
            dur="60s"
            repeatCount="indefinite"
          />
          </path>
        <path style="fill:#1C1C1C;" d="M0,223.5l33.3-2.3c33.4-2.399,100-7,166.7,22.601C266.7,273.5,333.3,337.5,400,352.5
				s133.3-19,200-46.801c66.7-27.898,133.3-49.5,166.7-60.398L800,234.5v266h-33.3c-33.4,0-100,0-166.7,0s-133.3,0-200,0
				s-133.3,0-200,0s-133.3,0-166.7,0H0V223.5z"/>
        <path style="fill:#171717;" d="M0,365.5l33.3-1.801c33.4-1.898,100-5.5,166.7,5.602C266.7,380.5,333.3,406.5,400,419
				s133.3,11.5,200,0.301c66.7-11.102,133.3-32.5,166.7-43.102L800,365.5v135h-33.3c-33.4,0-100,0-166.7,0s-133.3,0-200,0
				s-133.3,0-200,0s-133.3,0-166.7,0H0V365.5z"/>
        <path style="fill:#121212;" d="M0,409.5L33.3,395c33.4-14.5,100-43.5,166.7-60.699c66.7-17.102,133.3-22.5,200-23.301
				s133.3,2.801,200,18.301s133.3,42.898,166.7,56.5L800,399.5v101h-33.3c-33.4,0-100,0-166.7,0s-133.3,0-200,0s-133.3,0-200,0
				s-133.3,0-166.7,0H0V409.5z"/>
        <path style="fill:#0D0D0D;" d="M0,349.5l33.3,8.801c33.4,8.898,100,26.5,166.7,28.199s133.3-12.699,200-9.801
				C466.7,379.5,533.3,399.5,600,410s133.3,11.5,166.7,12l33.3,0.5v78h-33.3c-33.4,0-100,0-166.7,0s-133.3,0-200,0s-133.3,0-200,0
				s-133.3,0-166.7,0H0V349.5z"/>
        <path style="fill:#080808;" d="M0,439.5l33.3-10.801c33.4-10.898,100-32.5,166.7-37.5s133.3,6.602,200,12.102
				s133.3,4.898,200,11.5C666.7,421.5,733.3,435.5,766.7,442.5l33.3,7v51h-33.3c-33.4,0-100,0-166.7,0s-133.3,0-200,0
				s-133.3,0-200,0s-133.3,0-166.7,0H0V439.5z"/>
        <path style="fill:#030303;" d="M0,449.5l33.3,3.199c33.4,3.102,100,9.5,166.7,3.5S333.3,431.801,400,420s133.3-17.199,200-13.199
				s133.3,17.398,166.7,24L800,437.5v63h-33.3c-33.4,0-100,0-166.7,0s-133.3,0-200,0s-133.3,0-200,0s-133.3,0-166.7,0H0V449.5z"/>
        <path style="fill:#000000;" d="M0,432.5l33.3,1c33.4,1,100,3,166.7,6s133.3,7,200,5.5s133.3-8.5,200-11.199
				c66.7-2.602,133.3-1,166.7-0.102L800,434.5v66h-33.3c-33.4,0-100,0-166.7,0s-133.3,0-200,0s-133.3,0-200,0s-133.3,0-166.7,0H0
				V432.5z"/>
      </g>
    </g>
  </g>
  <g id="Layer_1"/>
</svg>
