<?xml version="1.0" encoding="utf-8"?>
<!-- Generator: Adobe Illustrator 27.5.0, SVG Export Plug-In . SVG Version: 6.00 Build 0)  -->
<svg version="1.1" xmlns="http://www.w3.org/2000/svg" xmlns:xlink="http://www.w3.org/1999/xlink" x="0px" y="0px"
	 viewBox="0 0 800 500" style="enable-background:new 0 0 800 500;" xml:space="preserve">
<g id="_x32_13">
	<g>
		<g>
			<rect y="-0.5" style="fill:#000104;" width="800" height="500"/>
			<path style="fill:#172C3B;" d="M0,288.5l33.3-21c33.4-21,100-63,166.7-71.199c66.7-8.101,133.3,17.5,200,42.199
				s133.3,48.301,200,32.301s133.3-71.601,166.7-99.5L800,143.5v357h-33.3c-33.4,0-100,0-166.7,0s-133.3,0-200,0s-133.3,0-200,0
				s-133.3,0-166.7,0H0V288.5z"/>
			<path style="fill:#132535;" d="M0,250.5L33.3,273c33.4,22.5,100,67.5,166.7,59s133.3-70.5,200-75.301
				c66.7-4.898,133.3,47.5,200,61.801s133.3-9.301,166.7-21.199L800,285.5v215h-33.3c-33.4,0-100,0-166.7,0s-133.3,0-200,0
				s-133.3,0-200,0s-133.3,0-166.7,0H0V250.5z"/>
			<path style="fill:#101F2F;" d="M0,312.5l33.3,10.301c33.4,10.398,100,31,166.7,43.199s133.3,15.801,200,21
				s133.3,11.801,200,6.699C666.7,388.5,733.3,371.5,766.7,363l33.3-8.5v146h-33.3c-33.4,0-100,0-166.7,0s-133.3,0-200,0
				s-133.3,0-200,0s-133.3,0-166.7,0H0V312.5z"/>
			<path style="fill:#0D1A29;" d="M0,223.5l33.3-2.3c33.4-2.399,100-7,166.7,22.601C266.7,273.5,333.3,337.5,400,352.5
				s133.3-19,200-46.801c66.7-27.898,133.3-49.5,166.7-60.398L800,234.5v266h-33.3c-33.4,0-100,0-166.7,0s-133.3,0-200,0
				s-133.3,0-200,0s-133.3,0-166.7,0H0V223.5z"/>
			<path style="fill:#0A1423;" d="M0,365.5l33.3-1.801c33.4-1.898,100-5.5,166.7,5.602C266.7,380.5,333.3,406.5,400,419
				s133.3,11.5,200,0.301c66.7-11.102,133.3-32.5,166.7-43.102L800,365.5v135h-33.3c-33.4,0-100,0-166.7,0s-133.3,0-200,0
				s-133.3,0-200,0s-133.3,0-166.7,0H0V365.5z"/>
			<path style="fill:#070F1D;" d="M0,409.5L33.3,395c33.4-14.5,100-43.5,166.7-60.699c66.7-17.102,133.3-22.5,200-23.301
				s133.3,2.801,200,18.301s133.3,42.898,166.7,56.5L800,399.5v101h-33.3c-33.4,0-100,0-166.7,0s-133.3,0-200,0s-133.3,0-200,0
				s-133.3,0-166.7,0H0V409.5z"/>
			<path style="fill:#050A17;" d="M0,349.5l33.3,8.801c33.4,8.898,100,26.5,166.7,28.199s133.3-12.699,200-9.801
				C466.7,379.5,533.3,399.5,600,410s133.3,11.5,166.7,12l33.3,0.5v78h-33.3c-33.4,0-100,0-166.7,0s-133.3,0-200,0s-133.3,0-200,0
				s-133.3,0-166.7,0H0V349.5z"/>
			<path style="fill:#030711;" d="M0,439.5l33.3-10.801c33.4-10.898,100-32.5,166.7-37.5s133.3,6.602,200,12.102
				s133.3,4.898,200,11.5C666.7,421.5,733.3,435.5,766.7,442.5l33.3,7v51h-33.3c-33.4,0-100,0-166.7,0s-133.3,0-200,0
				s-133.3,0-200,0s-133.3,0-166.7,0H0V439.5z"/>
			<path style="fill:#01030A;" d="M0,449.5l33.3,3.199c33.4,3.102,100,9.5,166.7,3.5S333.3,431.801,400,420s133.3-17.199,200-13.199
				s133.3,17.398,166.7,24L800,437.5v63h-33.3c-33.4,0-100,0-166.7,0s-133.3,0-200,0s-133.3,0-200,0s-133.3,0-166.7,0H0V449.5z"/>
			<path style="fill:#000104;" d="M0,432.5l33.3,1c33.4,1,100,3,166.7,6s133.3,7,200,5.5s133.3-8.5,200-11.199
				c66.7-2.602,133.3-1,166.7-0.102L800,434.5v66h-33.3c-33.4,0-100,0-166.7,0s-133.3,0-200,0s-133.3,0-200,0s-133.3,0-166.7,0H0
				V432.5z"/>
		</g>
		<g>
			<polygon style="fill:#FFFFFF;" points="98.152,35.114 99.942,39.07 101.507,39.07 103.296,35.114 103.296,40.74 106.229,40.74 
				106.229,30.06 103.04,30.06 100.725,35.083 98.423,30.06 95.219,30.06 95.219,40.74 98.152,40.74 			"/>
			<path style="fill:#FFFFFF;" d="M108.968,39.138c0.471,0.506,1.037,0.915,1.699,1.226c0.662,0.311,1.398,0.466,2.211,0.466
				c0.793,0,1.521-0.15,2.188-0.451c0.667-0.3,1.241-0.7,1.723-1.196c0.481-0.497,0.857-1.068,1.128-1.714
				c0.271-0.647,0.406-1.321,0.406-2.023c0-0.682-0.128-1.348-0.384-2c-0.256-0.652-0.619-1.234-1.09-1.745
				c-0.472-0.512-1.038-0.922-1.7-1.233c-0.662-0.311-1.398-0.466-2.211-0.466c-0.793,0-1.523,0.148-2.188,0.444
				c-0.667,0.295-1.244,0.691-1.73,1.188c-0.487,0.496-0.865,1.07-1.137,1.722c-0.271,0.652-0.405,1.329-0.405,2.031
				c0,0.692,0.13,1.364,0.391,2.016C108.13,38.052,108.496,38.632,108.968,39.138z M110.6,34.385
				c0.095-0.336,0.242-0.637,0.443-0.903c0.201-0.266,0.453-0.479,0.76-0.639c0.306-0.16,0.67-0.241,1.091-0.241
				c0.411,0,0.769,0.078,1.075,0.233c0.306,0.156,0.562,0.361,0.768,0.617c0.205,0.256,0.357,0.551,0.458,0.887
				c0.101,0.336,0.15,0.684,0.15,1.045c0,0.352-0.047,0.697-0.143,1.038c-0.095,0.341-0.241,0.645-0.436,0.91
				c-0.196,0.266-0.449,0.481-0.76,0.646c-0.312,0.166-0.677,0.249-1.099,0.249c-0.421,0-0.786-0.081-1.09-0.241
				c-0.307-0.16-0.56-0.372-0.76-0.632c-0.201-0.26-0.352-0.559-0.452-0.895c-0.1-0.336-0.15-0.684-0.15-1.045
				C110.456,35.064,110.504,34.721,110.6,34.385z"/>
			<path style="fill:#FFFFFF;" d="M125.889,40.356c0.662-0.255,1.229-0.616,1.7-1.083c0.471-0.467,0.835-1.028,1.091-1.685
				c0.256-0.657,0.384-1.391,0.384-2.204c0-0.732-0.116-1.421-0.347-2.068c-0.23-0.647-0.571-1.211-1.022-1.692
				c-0.451-0.481-1.014-0.863-1.685-1.143c-0.672-0.28-1.449-0.421-2.332-0.421h-4.106v10.68h4.106
				C124.49,40.74,125.227,40.612,125.889,40.356z M122.504,32.617h1.174c0.371,0,0.707,0.068,1.008,0.204
				c0.301,0.135,0.554,0.323,0.76,0.564c0.206,0.241,0.363,0.532,0.474,0.873c0.11,0.341,0.166,0.717,0.166,1.128
				c0,0.401-0.053,0.772-0.158,1.113c-0.105,0.341-0.261,0.637-0.466,0.888c-0.206,0.25-0.459,0.446-0.76,0.586
				c-0.302,0.141-0.643,0.21-1.023,0.21h-1.174V32.617z"/>
			<polygon style="fill:#FFFFFF;" points="137.952,38.183 133.274,38.183 133.274,36.498 137.155,36.498 137.155,34.122 
				133.274,34.122 133.274,32.617 137.816,32.617 137.816,30.06 130.341,30.06 130.341,40.74 137.952,40.74 			"/>
			<path style="fill:#FFFFFF;" d="M142.254,37.46h1.099l1.881,3.279h3.309l-2.256-3.926c0.48-0.341,0.857-0.78,1.128-1.316
				c0.271-0.536,0.406-1.115,0.406-1.737c0-0.452-0.091-0.9-0.271-1.346c-0.181-0.446-0.429-0.842-0.744-1.188
				c-0.315-0.347-0.694-0.627-1.136-0.843c-0.441-0.216-0.923-0.323-1.444-0.323h-4.903v10.68h2.933V37.46z M142.254,32.617h1.775
				c0.181,0,0.361,0.098,0.541,0.293c0.181,0.196,0.271,0.479,0.271,0.85c0,0.361-0.078,0.642-0.233,0.842
				c-0.156,0.2-0.323,0.301-0.504,0.301h-1.851V32.617z"/>
			<polygon style="fill:#FFFFFF;" points="152.407,35.49 156.649,40.74 158.98,40.74 158.98,30.06 156.047,30.06 156.047,35.49 
				151.761,30.06 149.474,30.06 149.474,40.74 152.407,40.74 			"/>
			<path style="fill:#FFFFFF;" d="M70.905,81.776c0.439-0.201,0.783-0.506,1.031-0.914c0.247-0.408,0.372-0.859,0.372-1.354
				c0-0.302-0.053-0.602-0.159-0.9c-0.105-0.298-0.254-0.563-0.447-0.797c-0.192-0.234-0.426-0.424-0.701-0.57
				c-0.275-0.146-0.582-0.22-0.921-0.22h-4.701v9.76h4.605c0.376,0,0.729-0.062,1.059-0.186c0.33-0.123,0.619-0.298,0.866-0.523
				c0.248-0.224,0.444-0.489,0.591-0.797c0.147-0.307,0.22-0.644,0.22-1.01c0-0.596-0.163-1.118-0.488-1.567
				C71.905,82.248,71.463,81.941,70.905,81.776z M66.341,77.858h3.437c0.229,0,0.44,0.048,0.632,0.145
				c0.193,0.096,0.36,0.225,0.502,0.384c0.142,0.161,0.252,0.351,0.33,0.571c0.078,0.22,0.117,0.454,0.117,0.701
				c0,0.238-0.042,0.465-0.123,0.681c-0.083,0.215-0.197,0.405-0.344,0.571c-0.146,0.164-0.323,0.298-0.529,0.398
				c-0.205,0.101-0.429,0.151-0.666,0.151h-3.354V77.858z M71.62,84.794c-0.092,0.225-0.218,0.421-0.378,0.591
				c-0.16,0.17-0.348,0.305-0.563,0.406c-0.215,0.101-0.447,0.151-0.694,0.151h-3.643v-3.698h3.739c0.238,0,0.46,0.053,0.667,0.158
				c0.206,0.105,0.385,0.243,0.536,0.412c0.151,0.17,0.268,0.366,0.351,0.591c0.082,0.225,0.123,0.456,0.123,0.694
				C71.757,84.337,71.711,84.569,71.62,84.794z"/>
			<path style="fill:#FFFFFF;" d="M80.65,77.02l-4.082,9.76h1.031l1.251-3.052h4.385l1.265,3.052h1.018l-4.056-9.76H80.65z
				 M79.056,82.972l1.993-4.826l1.966,4.826H79.056z"/>
			<path style="fill:#FFFFFF;" d="M96.267,84.999c-0.229,0.226-0.479,0.413-0.749,0.564c-0.271,0.151-0.549,0.261-0.838,0.33
				c-0.289,0.069-0.57,0.104-0.845,0.104c-0.523,0-1.006-0.112-1.451-0.336s-0.829-0.527-1.154-0.908
				c-0.326-0.38-0.582-0.818-0.77-1.313c-0.188-0.495-0.282-1.012-0.282-1.553c0-0.495,0.079-0.982,0.234-1.464
				c0.156-0.481,0.388-0.914,0.694-1.298c0.307-0.385,0.686-0.697,1.134-0.935c0.45-0.238,0.967-0.357,1.554-0.357
				c0.266,0,0.536,0.03,0.81,0.089c0.276,0.06,0.541,0.158,0.798,0.296c0.256,0.137,0.497,0.316,0.722,0.536
				c0.225,0.22,0.415,0.49,0.57,0.811l0.756-0.468c-0.293-0.632-0.749-1.145-1.368-1.539c-0.619-0.395-1.364-0.591-2.234-0.591
				c-0.733,0-1.388,0.145-1.966,0.433c-0.577,0.289-1.063,0.662-1.457,1.121c-0.394,0.459-0.694,0.978-0.9,1.56
				c-0.206,0.582-0.309,1.166-0.309,1.753c0,0.623,0.112,1.234,0.337,1.835c0.224,0.601,0.538,1.137,0.941,1.608
				c0.404,0.472,0.885,0.854,1.443,1.148c0.56,0.293,1.174,0.44,1.843,0.44c0.376,0,0.758-0.051,1.148-0.151
				c0.389-0.101,0.758-0.247,1.106-0.44c0.348-0.192,0.665-0.428,0.949-0.708c0.284-0.279,0.504-0.603,0.66-0.969l-0.797-0.412
				C96.688,84.502,96.495,84.775,96.267,84.999z"/>
			<polygon style="fill:#FFFFFF;" points="109.986,77.02 108.927,77.02 103.552,82.697 103.552,77.033 102.59,77.033 102.59,86.78 
				103.552,86.78 103.552,83.783 105.394,81.872 109.134,86.78 110.192,86.78 105.999,81.309 			"/>
			<path style="fill:#FFFFFF;" d="M119.085,82.724h2.172v1.623c-0.468,0.568-0.956,0.983-1.464,1.244
				c-0.509,0.261-1.043,0.392-1.602,0.392c-0.522,0-1.005-0.109-1.45-0.33c-0.445-0.22-0.832-0.516-1.162-0.886
				c-0.33-0.372-0.589-0.804-0.777-1.299c-0.188-0.495-0.282-1.018-0.282-1.567c0-0.523,0.083-1.029,0.248-1.52
				c0.165-0.49,0.401-0.925,0.708-1.306c0.307-0.38,0.678-0.685,1.114-0.914c0.435-0.229,0.923-0.344,1.464-0.344
				c0.651,0,1.232,0.143,1.746,0.426c0.513,0.284,0.93,0.729,1.251,1.333l0.742-0.494c-0.156-0.312-0.346-0.598-0.57-0.859
				c-0.225-0.262-0.491-0.486-0.797-0.674c-0.308-0.188-0.658-0.334-1.052-0.439c-0.394-0.105-0.83-0.159-1.306-0.159
				c-0.65,0-1.251,0.135-1.801,0.406c-0.55,0.271-1.026,0.632-1.43,1.086c-0.403,0.453-0.717,0.979-0.941,1.574
				c-0.225,0.595-0.337,1.218-0.337,1.869c0,0.624,0.114,1.231,0.344,1.821c0.229,0.591,0.547,1.121,0.956,1.588
				c0.408,0.467,0.889,0.843,1.443,1.128c0.554,0.284,1.162,0.426,1.821,0.426c1.182,0,2.227-0.499,3.134-1.498v1.43h0.811v-4.797
				h-2.983V82.724z"/>
			<path style="fill:#FFFFFF;" d="M133.08,82.649c0.266-0.179,0.492-0.398,0.68-0.66c0.188-0.262,0.334-0.555,0.439-0.88
				c0.105-0.325,0.158-0.667,0.158-1.024c0-0.376-0.07-0.747-0.213-1.113c-0.142-0.367-0.342-0.694-0.598-0.983
				c-0.256-0.289-0.561-0.522-0.914-0.701c-0.354-0.179-0.74-0.268-1.162-0.268h-4.124v9.76h0.961v-3.602h2.889l2.295,3.602h1.086
				l-2.393-3.767C132.516,82.949,132.814,82.828,133.08,82.649z M128.309,82.326v-4.454h3.107c0.266,0,0.521,0.06,0.764,0.179
				c0.242,0.12,0.453,0.28,0.633,0.481c0.178,0.202,0.32,0.437,0.426,0.708c0.105,0.271,0.158,0.552,0.158,0.845
				c0,0.294-0.047,0.573-0.139,0.838c-0.092,0.267-0.219,0.504-0.385,0.714c-0.164,0.212-0.363,0.379-0.597,0.502
				c-0.234,0.124-0.492,0.186-0.778,0.186H128.309z"/>
			<path style="fill:#FFFFFF;" d="M146.873,78.518c-0.398-0.468-0.878-0.845-1.443-1.134c-0.563-0.289-1.184-0.433-1.861-0.433
				c-0.652,0-1.256,0.135-1.814,0.406c-0.559,0.271-1.045,0.634-1.457,1.093c-0.412,0.457-0.736,0.985-0.971,1.58
				c-0.232,0.596-0.35,1.219-0.35,1.87c0,0.623,0.109,1.232,0.33,1.828c0.221,0.595,0.531,1.125,0.936,1.587
				c0.402,0.463,0.885,0.835,1.449,1.113c0.564,0.28,1.184,0.419,1.863,0.419c0.65,0,1.256-0.135,1.814-0.405
				c0.559-0.271,1.041-0.632,1.449-1.087c0.408-0.454,0.729-0.978,0.963-1.574c0.232-0.595,0.35-1.218,0.35-1.87
				c0-0.614-0.109-1.216-0.33-1.807C147.581,79.515,147.273,78.985,146.873,78.518z M146.916,83.384
				c-0.17,0.486-0.412,0.921-0.723,1.306c-0.313,0.385-0.691,0.697-1.141,0.935c-0.449,0.239-0.949,0.357-1.498,0.357
				c-0.541,0-1.031-0.112-1.471-0.336c-0.441-0.225-0.82-0.527-1.143-0.907c-0.32-0.38-0.569-0.816-0.742-1.306
				c-0.174-0.49-0.26-1.001-0.26-1.532c0-0.504,0.084-0.999,0.254-1.485c0.17-0.485,0.41-0.921,0.721-1.306
				c0.313-0.385,0.691-0.695,1.141-0.928c0.449-0.234,0.949-0.351,1.5-0.351c0.531,0,1.016,0.112,1.457,0.337
				c0.439,0.225,0.82,0.524,1.141,0.9c0.32,0.375,0.57,0.809,0.748,1.299c0.18,0.491,0.27,1.002,0.27,1.533
				C147.17,82.403,147.084,82.898,146.916,83.384z"/>
			<path style="fill:#FFFFFF;" d="M160.367,81.941c0,0.495-0.049,0.985-0.145,1.471c-0.098,0.486-0.266,0.919-0.51,1.299
				c-0.242,0.38-0.568,0.688-0.977,0.921c-0.406,0.233-0.918,0.35-1.531,0.35c-0.605,0-1.109-0.114-1.512-0.343
				c-0.404-0.229-0.727-0.531-0.971-0.907c-0.242-0.375-0.414-0.807-0.516-1.292c-0.099-0.485-0.15-0.985-0.15-1.498V77.02h-0.949
				v4.921c0,0.624,0.07,1.228,0.207,1.814c0.137,0.586,0.367,1.109,0.688,1.567c0.32,0.458,0.744,0.828,1.271,1.106
				c0.527,0.28,1.176,0.419,1.945,0.419c0.75,0,1.389-0.133,1.91-0.398c0.523-0.266,0.945-0.623,1.271-1.072
				c0.326-0.449,0.563-0.969,0.709-1.56s0.219-1.217,0.219-1.876V77.02h-0.961V81.941z"/>
			<polygon style="fill:#FFFFFF;" points="174.127,85.144 167.666,77.02 166.924,77.02 166.924,86.78 167.885,86.78 167.885,78.806 
				174.25,86.78 175.088,86.78 175.088,77.033 174.127,77.033 			"/>
			<path style="fill:#FFFFFF;" d="M187.646,78.45c-0.391-0.44-0.877-0.789-1.459-1.045c-0.582-0.256-1.262-0.385-2.041-0.385h-3.312
				v9.76h3.312c0.715,0,1.359-0.117,1.932-0.351c0.572-0.233,1.063-0.564,1.471-0.989c0.408-0.427,0.723-0.939,0.941-1.54
				c0.221-0.601,0.33-1.272,0.33-2.014c0-0.668-0.098-1.299-0.295-1.89C188.328,79.404,188.035,78.889,187.646,78.45z
				 M187.617,83.487c-0.161,0.49-0.397,0.917-0.707,1.279c-0.313,0.361-0.699,0.646-1.163,0.852
				c-0.462,0.206-0.996,0.309-1.601,0.309h-2.35v-8.056h2.35c0.596,0,1.123,0.098,1.582,0.296c0.457,0.197,0.846,0.474,1.16,0.831
				c0.316,0.357,0.557,0.782,0.723,1.271c0.164,0.49,0.248,1.029,0.248,1.615C187.859,82.463,187.777,82.997,187.617,83.487z"/>
			<polygon style="fill:#FFFFFF;" points="84.377,71.866 90.675,71.866 101.481,44.265 93.24,44.265 87.292,63.197 85.31,57.443 
				89.858,44.265 82.9,44.265 80.451,52.778 78.04,44.265 71.081,44.265 75.553,57.443 73.648,63.197 67.661,44.265 59.458,44.265 
				70.266,71.866 76.563,71.866 80.451,61.991 			"/>
			<path style="fill:#FFFFFF;" d="M108.246,44.265l-9.602,27.601h7.736l1.633-5.404h7.347l1.671,5.404h7.697l-9.563-27.601H108.246z
				 M109.14,61.409l2.566-8.553l2.449,8.553H109.14z"/>
			<polygon style="fill:#FFFFFF;" points="135.496,62.341 130.094,44.265 122.085,44.265 132.348,71.866 138.644,71.866 
				148.791,44.265 140.822,44.265 			"/>
			<polygon style="fill:#FFFFFF;" points="170.56,65.257 158.471,65.257 158.471,60.903 168.5,60.903 168.5,54.761 158.471,54.761 
				158.471,50.874 170.211,50.874 170.211,44.265 150.891,44.265 150.891,71.866 170.56,71.866 			"/>
			<path style="fill:#FFFFFF;" d="M194.74,63.43c0-1.295-0.195-2.397-0.584-3.304c-0.389-0.907-0.945-1.678-1.672-2.313
				c-0.725-0.635-1.6-1.186-2.623-1.653c-1.025-0.466-2.172-0.894-3.441-1.283c-0.803-0.259-1.521-0.479-2.156-0.661
				c-0.637-0.18-1.174-0.369-1.613-0.563c-0.441-0.194-0.778-0.408-1.012-0.642c-0.232-0.232-0.35-0.53-0.35-0.893
				c0-0.492,0.201-0.842,0.604-1.05c0.4-0.207,0.938-0.311,1.613-0.311c0.828,0,1.678,0.136,2.545,0.408
				c0.869,0.271,1.652,0.563,2.354,0.875c0.828,0.363,1.631,0.777,2.41,1.244l3.264-6.259c-0.622-0.311-1.32-0.642-2.098-0.991
				c-0.777-0.35-1.613-0.674-2.508-0.972c-0.895-0.298-1.822-0.544-2.779-0.739c-0.959-0.194-1.946-0.291-2.955-0.291
				c-1.373,0-2.676,0.201-3.907,0.603c-1.232,0.402-2.326,0.992-3.285,1.769c-0.959,0.777-1.717,1.75-2.275,2.916
				c-0.557,1.166-0.834,2.514-0.834,4.042c0,1.011,0.135,1.905,0.408,2.683c0.271,0.777,0.691,1.471,1.262,2.08
				c0.57,0.609,1.297,1.153,2.178,1.632c0.881,0.479,1.93,0.927,3.148,1.341c0.83,0.286,1.613,0.532,2.352,0.739
				c0.74,0.208,1.392,0.415,1.962,0.622c0.571,0.208,1.018,0.447,1.342,0.72c0.324,0.271,0.486,0.602,0.486,0.991
				c0,0.363-0.162,0.654-0.486,0.874c-0.324,0.221-0.9,0.33-1.73,0.33c-1.088,0-2.156-0.155-3.207-0.467
				c-1.049-0.311-1.988-0.661-2.818-1.049c-0.984-0.44-1.93-0.945-2.838-1.516l-3.264,6.648c0.828,0.493,1.729,0.933,2.701,1.321
				c0.971,0.389,1.982,0.726,3.031,1.011c1.051,0.285,2.105,0.505,3.17,0.661c1.061,0.155,2.098,0.233,3.109,0.233
				c1.27,0,2.533-0.15,3.789-0.447c1.258-0.298,2.385-0.784,3.383-1.458c0.998-0.674,1.801-1.574,2.41-2.702
				C194.435,66.481,194.74,65.089,194.74,63.43z"/>
			<polygon style="fill:#FFFFFF;" points="163.85,34.722 163.85,35.722 207.939,35.722 207.939,80.793 192.85,80.793 192.85,81.793 
				208.939,81.793 208.939,34.722 			"/>
			<polygon style="fill:#FFFFFF;" points="42.26,35.722 89.209,35.722 89.209,34.722 41.26,34.722 41.26,81.793 60.209,81.793 
				60.209,80.793 42.26,80.793 			"/>
		</g>
	</g>
</g>
<g id="Layer_1">
</g>
</svg>
