<svg xmlns="http://www.w3.org/2000/svg" viewBox="0 0 800 500">
  <style>
    @keyframes move1{0%{transform:translate(0,0) translateZ(0)}50%{transform:translate(-400px,38px) translateZ(0)}to{transform:translate(-800px,0) translateZ(0)}}@keyframes move2{0%{transform:translate(-800px,0) translateZ(0)}50%{transform:translate(-400px,-42px) translateZ(0)}to{transform:translate(0,0) translateZ(0)}}@keyframes move3{0%{transform:translate(0,0) translateZ(0)}50%{transform:translate(-400px,32px) translateZ(0)}to{transform:translate(-800px,0) translateZ(0)}}@keyframes move4{0%{transform:translate(-800px,0) translateZ(0)}50%{transform:translate(-400px,-15px) translateZ(0)}to{transform:translate(0,0) translateZ(0)}}@keyframes move5{0%{transform:translate(0,0) translateZ(0)}50%{transform:translate(-400px,29px) translateZ(0)}to{transform:translate(-800px,0) translateZ(0)}}@keyframes move6{0%{transform:translate(-800px,0) translateZ(0)}50%{transform:translate(-400px,-31px) translateZ(0)}to{transform:translate(0,0) translateZ(0)}}@keyframes move7{0%{transform:translate(0,0) translateZ(0)}50%{transform:translate(-400px,40px) translateZ(0)}to{transform:translate(-800px,0) translateZ(0)}}@keyframes move8{0%{transform:translate(-800px,0) translateZ(0)}50%{transform:translate(-400px,-36px) translateZ(0)}to{transform:translate(0,0) translateZ(0)}}@keyframes move9{0%{transform:translate(0,0) translateZ(0)}50%{transform:translate(-400px,28px) translateZ(0)}to{transform:translate(-800px,0) translateZ(0)}}@keyframes move10{0%{transform:translate(-800px,0) translateZ(0)}50%{transform:translate(-400px,-41px) translateZ(0)}to{transform:translate(0,0) translateZ(0)}}
  </style>
  <path style="fill:#121212" d="M0-.5h800v500H0z"/>
  <path style="animation:move1 264s infinite;transform:translateZ(0);fill:#2b2b2b" d="M0 170c100 0 110 105 221 70s136 104 250 90 199-160 329-160c100 0 110 105 221 70s136 104 250 90 199-160 329-160v430H0Z"/>
  <path style="animation:move2 283s infinite;transform:translateZ(0);fill:#262626" d="M0 255c50 0 100 70 170 45s130-60 200-65c65-5 130 45 200 65s195-45 230-45c50 0 100 70 170 45s130-60 200-65c65-5 130 45 200 65s195-45 230-45v245H0Z"/>
  <path style="animation:move3 251s infinite;transform:translateZ(0);fill:#212121" d="M0 500V330c80 0 98 91 197 91s99-49 165-49 125 53 193 49c109 3 165-91 245-91s98 91 197 91 99-49 165-49 125 53 193 49c109 3 165-91 245-91v170Z"/>
  <path style="animation:move4 178s infinite;transform:translateZ(0);fill:#1c1c1c" d="M0 235c40 0 105 11 168 34 103 40 167 71 232 81s135-15 200-45c70-25 131-70 200-70 40 0 105 11 168 34 103 40 167 71 232 81s135-15 200-45c70-25 131-70 200-70v265H0Z"/>
  <path style="animation:move5 193s infinite;transform:translateZ(0);fill:#171717" d="M0 365c33 0 98 1 173 13 103 18 161 56 226 68s152-2 201-26c60-32 136-55 200-55 33 0 98 1 173 13 103 18 161 56 226 68s152-2 201-26c60-32 136-55 200-55v185H0Z"/>
  <path style="animation:move6 222s infinite;transform:translateZ(0);fill:#121212" d="M0 410c188 0 172-110 400-110s211 110 400 110c188 0 172-110 400-110s211 110 400 110v140H0Z"/>
  <path style="animation:move7 276s infinite;transform:translateZ(0);fill:#0d0d0d" d="M0 350c67 0 133 35 200 37s133-13 200-10 129 24 200 33 134-60 200-60c67 0 133 35 200 37s133-13 200-10 129 24 200 33 134-60 200-60v200H0Z"/>
  <path style="animation:move8 244s infinite;transform:translateZ(0);fill:#080808" d="M0 443c67 0 133-47 200-52s133 7 200 12 133 5 200 12 133 28 200 28 133-47 200-52 133 7 200 12 133 5 200 12 133 28 200 28v107H0Z"/>
  <path style="animation:move9 217s infinite;transform:translateZ(0);fill:#030303" d="M0 450c67 0 133 12 200 6s133-24 200-36 133-17 200-13 133 43 200 43 133 12 200 6 133-24 200-36 133-17 200-13 133 43 200 43v100H0Z"/>
  <path style="animation:move10 291s infinite;transform:translateZ(0);fill:#000" d="M0 434c67 0 133 3 200 6s133 7 200 5 133-8 200-11 133 0 200 0 133 3 200 6 133 7 200 5 133-8 200-11 133 0 200 0v116H0Z"/>
</svg>
