<svg id="hamburger"
      xmlns="http://www.w3.org/2000/svg"
      viewBox="-50 -50 1100 1100"
      width="100"
      height="100"
    >
      <path
        id="pathA"
        class="pathA-start"
        d="M 300 400 L 700 400 C 900 400 900 750 600 850 A 400 400 0 0 1 200 200 L 800 800"
        fill="none"
        stroke="#e2e2e2"
        stroke-width="50"
        stroke-linecap="round"
        stroke-linejoin="round"
      ></path>
      <path
        id="pathB"
        class="pathB-start"
        d="M 300 500 L 700 500 L 1000 500 
        a 500,500 0 1,1 -1000,0
    a 500,500 0 1,1 1000,0"
        fill="none"
        stroke="#e2e2e2"
        stroke-width="50"
        stroke-linecap="round"
        stroke-linejoin="round"
      ></path>
      <path
        id="pathC"
        class="pathA-start"
        d="M 700 600 L 300 600 C 100 600 100 200 400 150 A 400 380 0 1 1 200 800 L 800 200"
        fill="none"
        stroke="#e2e2e2"
        stroke-width="50"
        stroke-linecap="round"
        stroke-linejoin="round"
      ></path>
    </svg>