<svg xmlns="http://www.w3.org/2000/svg" viewBox="0 0 800 500">
  <style>
    .wave-path {
      filter: drop-shadow(2px -1px 3px #000);
    }

    .moving-path1 {
      animation: move1 200s linear -5s infinite;
      fill: #2B2B2B;
    }

    @keyframes move1 {
      0% {
        transform: translate(0, 0) rotate(0deg);
        d: path("M0 170C100 170 110 275 221 240S357 344 471 330 670 170 800 170C900 170 910 275 1021 240S1157 344 1271 330 1470 170 1600 170V600H0Z");
      }
      50% {
        transform: translate(-400px, 30px) rotate(-1deg);
        d: path("M0 170C106 142 125 299 210 247S393 275 457 318 692 209 801 177C905 145 911 248 1016 246S1173 369 1269 320 1464 134 1600 170V600H0Z");
      }
      100% {
        transform: translate(-800px, 0) rotate(0deg);
        d: path("M0 170C100 170 110 275 221 240S357 344 471 330 670 170 800 170C900 170 910 275 1021 240S1157 344 1271 330 1470 170 1600 170V600H0Z");
      }
    }

    .moving-path2 {
      animation: move2 190s linear -10s infinite;
      fill: #262626;
    }

    @keyframes move2 {
      0% {
        transform: translate(-800px, 0) rotate(0deg);
        d: path("M0 255C50 255 100 325 170 300S300 240 370 235C435 230 500 280 570 300S765 255 800 255C850 255 900 325 970 300S1100 240 1170 235C1235 230 1300 280 1370 300S1565 255 1600 255V600H0Z");
      }
      50% {
        transform: translate(-400px, 42px) rotate(1deg);
        d: path("M0 255C53 271 127 362 189 311S301 251 344 245C444 231 516 306 602 306S767 245 810 253C854 261 900 315 954 296S1076 248 1129 242C1250 230 1335 235 1403 301S1565 242 1600 255V600H0Z");
      }
      100% {
        transform: translate(0, 0) rotate(0deg);
        d: path("M0 255C50 255 100 325 170 300S300 240 370 235C435 230 500 280 570 300S765 255 800 255C850 255 900 325 970 300S1100 240 1170 235C1235 230 1300 280 1370 300S1565 255 1600 255V600H0Z");
      }
    }

    .moving-path3 {
      animation: move3 180s linear -15s infinite;
      fill: #212121;
    }

    @keyframes move3 {
      0% {
        transform: translate(0, 0) rotate(0deg);
        d: path("M0 600V330C80 330 98 421 197 421S296 372 362 372 487 425 555 421C664 424 720 330 800 330S898 421 997 421 1096 372 1162 372 1287 425 1355 421C1464 424 1520 330 1600 330V600Z");
      }
      50% {
        transform: translate(-400px, 32px) rotate(-1deg);
        d: path("M0 600V330C83 304 109 388 213 422S296 372 362 372 479 387 556 406C682 437 651 326 764 344S913 389 998 413 1119 384 1192 370 1289 415 1401 430C1468 439 1527 283 1600 330V600Z");
      }
      100% {
        transform: translate(-800px, 0) rotate(0deg);
        d: path("M0 600V330C80 330 98 421 197 421S296 372 362 372 487 425 555 421C664 424 720 330 800 330S898 421 997 421 1096 372 1162 372 1287 425 1355 421C1464 424 1520 330 1600 330V600Z");
      }
    }

    .moving-path4 {
      animation: move4 170s linear -20s infinite;
      fill: #1C1C1C;
    }

    @keyframes move4 {
      0% {
        transform: translate(0, 0) rotate(0deg);
        d: path("M0 235C40 235 105 246 168 269 271 309 335 340 400 350S535 335 600 305C670 280 731 235 800 235 840 235 905 246 968 269 1071 309 1135 340 1200 350S1335 335 1400 305C1470 280 1531 235 1600 235V600H0Z");
      }
      50% {
        transform: translate(-400px, 15px) rotate(1deg);
        d: path("M0 235C40 235 110 244 181 296 260 344 327 342 379 341S530 330 612 292C671 264 731 235 817 250 848 255 875 284 940 284 1080 284 1131 310 1179 335S1363 356 1412 315C1462 273 1531 235 1600 235V600H0Z");
      }
      100% {
        transform: translate(-800px, 0) rotate(0deg);
        d: path("M0 235C40 235 105 246 168 269 271 309 335 340 400 350S535 335 600 305C670 280 731 235 800 235 840 235 905 246 968 269 1071 309 1135 340 1200 350S1335 335 1400 305C1470 280 1531 235 1600 235V600H0Z");
      }
    }


       .moving-path5 {
      animation: move5 160s linear -5s infinite;
      fill: #171717;
    }
  

    @keyframes move5 {
      0% {
        transform: translate(-800px, 0) rotate(0deg);
        d: path("M0 410C188 410 172 300 400 300S611 410 800 410C988 410 972 300 1200 300S1411 410 1600 410V600H0Z");
      }
      50% {
        transform: translate(-400px, -31px) rotate(1deg);
        d: path("M0 410C200 470 171 277 377 319S645 464 835 366C973 296 994 284 1145 312S1431 472 1600 410V600H0Z");
      }
      100% {
        transform: translate(0, 0) rotate(0deg);
        d: path("M0 410C188 410 172 300 400 300S611 410 800 410C988 410 972 300 1200 300S1411 410 1600 410V600H0Z");
      }
    }

    .moving-path6 {
      animation: move6 150s linear -25s infinite;
      fill: #121212;
    }

    
    @keyframes move6 {
      0% {
        transform: translate(0, 0) rotate(0deg);
        d: path("M0 365C33 365 98 366 173 378 276 396 334 434 399 446S551 444 600 420C660 388 736 365 800 365 833 365 898 366 973 378 1076 396 1134 434 1199 446S1351 444 1400 420C1460 388 1536 365 1600 365V600H0Z");
      }
      50% {
        transform: translate(-400px, -40px) rotate(-1deg);
        d: path("M0 365C33 365 113 354 198 405 275 449 335 448 386 419S550 436 619 419C687 402 747 352 833 381 920 409 898 434 1009 402 1076 381 1099 455 1183 427S1376 399 1437 396C1517 392 1536 365 1600 365V600H0Z");
      }
      100% {
        transform: translate(-800px, 0) rotate(0deg);
        d: path("M0 365C33 365 98 366 173 378 276 396 334 434 399 446S551 444 600 420C660 388 736 365 800 365 833 365 898 366 973 378 1076 396 1134 434 1199 446S1351 444 1400 420C1460 388 1536 365 1600 365V600H0Z");
      }
    }

   

    .moving-path7 {
      animation: move7 140s linear -10s infinite;
      fill: #101010;
    }

    @keyframes move7 {
      0% {
        transform: translate(0, 0) rotate(0deg);
        d: path("M0 350C67 350 133 385 200 387S333 374 400 377 529 401 600 410 734 350 800 350C867 350 933 385 1000 387S1133 374 1200 377 1329 401 1400 410 1534 350 1600 350V600H0Z");
      }
      50% {
        transform: translate(-400px, -15px) rotate(-1deg);
        d: path("M0 350C67 350 133 385 166 406S333 374 435 369 529 401 629 416 733 351 796 352C866 353 935 442 1022 392S1138 358 1229 383 1354 456 1406 421 1534 350 1600 350V600H0Z");
      }
      100% {
        transform: translate(-800px, 0) rotate(0deg);
        d: path("M0 350C67 350 133 385 200 387S333 374 400 377 529 401 600 410 734 350 800 350C867 350 933 385 1000 387S1133 374 1200 377 1329 401 1400 410 1534 350 1600 350V600H0Z");
      }
    }

    .moving-path8 {
      animation: move8 130s linear -15s infinite;
      fill: #0e0e0e;
    }

    @keyframes move8 {
      0% {
        transform: translate(-800px, 0) rotate(0deg);
        d: path("M0 450C67 443 133 396 200 391S333 398 400 403 533 408 600 415 733 443 800 443 933 396 1000 391 1133 398 1200 403 1333 408 1400 415 1533 443 1600 450V600H0Z");
      }
      50% {
        transform: translate(-400px, -36px) rotate(1deg);
        d: path("M0 450C77 481 147 369 258 424S472 435 486 428 564 376 666 420 806 465 841 444 904 378 978 408 1159 453 1228 411 1332 423 1412 415 1540 481 1600 450V600H0Z");
      }
      100% {
        transform: translate(0, 0) rotate(0deg);
        d: path("M0 450C67 443 133 396 200 391S333 398 400 403 533 408 600 415 733 443 800 443 933 396 1000 391 1133 398 1200 403 1333 408 1400 415 1533 443 1600 450V600H0Z");
      }
    }

   

    .moving-path9 {
      animation: move9 120s linear -25s infinite;
      fill: #0a0a0a;
    }

    @keyframes move9 {
      0% {
        transform: translate(-800px, 0) rotate(0deg);
        d: path("M0 434C67 434 133 437 200 440S333 447 400 445 533 437 600 434 733 434 800 434 933 437 1000 440 1133 447 1200 445 1333 437 1400 434 1533 434 1600 434V600H0Z");
      }
      50% {
        transform: translate(-400px, -21px) rotate(-1deg);
        d: path("M0 475C92 490 133 437 200 440S347 502 432 455 533 437 592 449 751 464 798 429 913 400 978 448 1115 421 1225 455 1306 440 1401 445 1513 498 1600 475V600H0Z");
      }
      100% {
        transform: translate(0, 0) rotate(0deg);
        d: path("M0 434C67 434 133 437 200 440S333 447 400 445 533 437 600 434 733 434 800 434 933 437 1000 440 1133 447 1200 445 1333 437 1400 434 1533 434 1600 434V600H0Z");
      }
    }

     .moving-path10 {
      animation: move10 110s linear -20s infinite;
      fill: #000000;
    }
        @keyframes move10 {
      0% {
        transform: translate(0, 0) rotate(0deg);
        d: path("M0 450C67 450 133 462 200 456S333 432 400 420 533 403 600 407 733 450 800 450 933 462 1000 456 1133 432 1200 420 1333 403 1400 407 1533 450 1600 450V600H0Z");
      }
      50% {
        transform: translate(-400px, 0px) rotate(1deg);
        d: path("M0 450C73 426 133 462 178 473S340 414 403 441 498 409 582 409 764 490 845 462 971 484 1025 456 1103 422 1171 430 1347 389 1406 429 1513 488 1600 450V600H0Z");
      }
      100% {
        transform: translate(-800px, 0) rotate(0deg);
        d: path("M0 450C67 450 133 462 200 456S333 432 400 420 533 403 600 407 733 450 800 450 933 462 1000 456 1133 432 1200 420 1333 403 1400 407 1533 450 1600 450V600H0Z");
      }
    }
  </style>

  <rect y="-0.5" width="800" height="500" fill="#121212"/>
  <path class="wave-path moving-path1" d="M0 170C100 170 110 275 221 240S357 344 471 330 670 170 800 170C900 170 910 275 1021 240S1157 344 1271 330 1470 170 1600 170V600H0Z"/>
  <path class="wave-path moving-path2" d="M0 255C50 255 100 325 170 300S300 240 370 235C435 230 500 280 570 300S765 255 800 255C850 255 900 325 970 300S1100 240 1170 235C1235 230 1300 280 1370 300S1565 255 1600 255V600H0Z"/>
  <path class="wave-path moving-path3" d="M0 600V330C80 330 98 421 197 421S296 372 362 372 487 425 555 421C664 424 720 330 800 330S898 421 997 421 1096 372 1162 372 1287 425 1355 421C1464 424 1520 330 1600 330V600Z"/>
  <path class="wave-path moving-path4" d="M0 235C40 235 105 246 168 269 271 309 335 340 400 350S535 335 600 305C670 280 731 235 800 235 840 235 905 246 968 269 1071 309 1135 340 1200 350S1335 335 1400 305C1470 280 1531 235 1600 235V600H0Z"/>
  <path class="wave-path moving-path5" d="M0 410C188 410 172 300 400 300S611 410 800 410C988 410 972 300 1200 300S1411 410 1600 410V600H0Z"/>
  <path class="wave-path moving-path6" d="M0 365C33 365 98 366 173 378 276 396 334 434 399 446S551 444 600 420C660 388 736 365 800 365 833 365 898 366 973 378 1076 396 1134 434 1199 446S1351 444 1400 420C1460 388 1536 365 1600 365V600H0Z"/>
  <path class="wave-path moving-path7" d="M0 350C67 350 133 385 200 387S333 374 400 377 529 401 600 410 734 350 800 350C867 350 933 385 1000 387S1133 374 1200 377 1329 401 1400 410 1534 350 1600 350V600H0Z"/>
  <path class="wave-path moving-path8" d="M0 443C67 443 133 396 200 391S333 398 400 403 533 408 600 415 733 443 800 443 933 396 1000 391 1133 398 1200 403 1333 408 1400 415 1533 443 1600 443V600H0Z"/>
  <path class="wave-path moving-path9" d="M0 434C67 434 133 437 200 440S333 447 400 445 533 437 600 434 733 434 800 434 933 437 1000 440 1133 447 1200 445 1333 437 1400 434 1533 434 1600 434V600H0Z"/>
  <path class="wave-path moving-path10" d="M0 450C67 450 133 462 200 456S333 432 400 420 533 403 600 407 733 450 800 450 933 462 1000 456 1133 432 1200 420 1333 403 1400 407 1533 450 1600 450V600H0Z"/>
  
</svg>
