<svg xmlns="http://www.w3.org/2000/svg" viewBox="0 0 800 500">
  <style>
    .wave-path {
      filter: drop-shadow(2px -1px 3px #000);
    }

    .moving-path1 {
      animation: move1 200s linear -5s infinite;
      fill: #2B2B2B;
    }

    @keyframes move1 {
      0% {
        transform: translate(0, 0);
        d: path("M0 170C100 170 110 275 221 240S357 344 471 330 670 170 800 170C900 170 910 275 1021 240S1157 344 1271 330 1470 170 1600 170V600H0Z");
      }
      50% {
        transform: translate(-400px, 30px);
        d: path("M0 200C100 170 156 247 247 226S350 321 446 314 558 210 720 190C899 167 923 280 1045 252S1150 309 1279 306 1479 181 1600 200V600H0Z");
      }
      100% {
        transform: translate(-800px, 0);
        d: path("M0 170C100 170 110 275 221 240S357 344 471 330 670 170 800 170C900 170 910 275 1021 240S1157 344 1271 330 1470 170 1600 170V600H0Z");
      }
    }

    .moving-path2 {
      animation: move2 190s linear -10s infinite;
      fill: #262626;
    }

    @keyframes move2 {
      0% {
        transform: translate(-800px, 0);
        d: path("M0 255C50 255 100 325 170 300S300 240 370 235C435 230 500 280 570 300S765 255 800 255C850 255 900 325 970 300S1100 240 1170 235C1235 230 1300 280 1370 300S1565 255 1600 255V600H0Z");
      }
      50% {
        transform: translate(-400px, 42px);
        d: path("M0 300C73 300 100 325 172 318S294 223 372 217C444 208 496 304 571 325S741 227 801 229C871 231 900 325 974 317S1099 205 1171 219C1235 230 1297 287 1372 314S1527 305 1600 300V600H0Z");
      }
      100% {
        transform: translate(0, 0);
        d: path("M0 255C50 255 100 325 170 300S300 240 370 235C435 230 500 280 570 300S765 255 800 255C850 255 900 325 970 300S1100 240 1170 235C1235 230 1300 280 1370 300S1565 255 1600 255V600H0Z");
      }
    }

    .moving-path3 {
      animation: move3 180s linear -15s infinite;
      fill: #212121;
    }

    @keyframes move3 {
      0% {
        transform: translate(0, 0);
        d: path("M0 600V330C80 330 98 421 197 421S296 372 362 372 487 425 555 421C664 424 720 330 800 330S898 421 997 421 1096 372 1162 372 1287 425 1355 421C1464 424 1520 330 1600 330V600Z");
      }
      50% {
        transform: translate(-400px, 32px);
        d: path("M0 600V300C80 330 98 421 184 429S296 372 368 358 479 444 555 439C664 433 717 336 788 321S903 431 996 434 1100 375 1161 361 1286 436 1356 433C1445 431 1520 330 1600 300V600Z");
      }
      100% {
        transform: translate(-800px, 0);
        d: path("M0 600V330C80 330 98 421 197 421S296 372 362 372 487 425 555 421C664 424 720 330 800 330S898 421 997 421 1096 372 1162 372 1287 425 1355 421C1464 424 1520 330 1600 330V600Z");
      }
    }

    .moving-path4 {
      animation: move4 170s linear -20s infinite;
      fill: #1C1C1C;
    }

    @keyframes move4 {
      0% {
        transform: translate(0, 0);
        d: path("M0 235C40 235 105 246 168 269 271 309 335 340 400 350S535 335 600 305C670 280 731 235 800 235 840 235 905 246 968 269 1071 309 1135 340 1200 350S1335 335 1400 305C1470 280 1531 235 1600 235V600H0Z");
      }
      50% {
        transform: translate(-400px, 15px);
        d: path("M0 260C55 236 105 246 168 269 271 309 329 358 394 367S519 288 606 313C687 341 711 254 803 248 898 245 909 311 967 289 1084 238 1116 354 1200 362S1322 316 1394 281C1464 246 1543 284 1600 260V600H0Z");
      }
      100% {
        transform: translate(-800px, 0);
        d: path("M0 235C40 235 105 246 168 269 271 309 335 340 400 350S535 335 600 305C670 280 731 235 800 235 840 235 905 246 968 269 1071 309 1135 340 1200 350S1335 335 1400 305C1470 280 1531 235 1600 235V600H0Z");
      }
    }

    .moving-path5 {
      animation: move5 160s linear -25s infinite;
      fill: #171717;
    }

    @keyframes move5 {
      0% {
        transform: translate(0, 0);
        d: path("M0 365C33 365 98 366 173 378 276 396 334 434 399 446S551 444 600 420C660 388 736 365 800 365 833 365 898 366 973 378 1076 396 1134 434 1199 446S1351 444 1400 420C1460 388 1536 365 1600 365V600H0Z");
      }
      50% {
        transform: translate(-400px, 29px);
        d: path("M0 375C49 376 97 405 173 378 292 354 334 434 399 446S525 364 599 396C664 422 760 413 802 389 857 362 932 383 976 401 1029 421 1129 390 1197 424S1344 453 1399 428C1440 408 1538 376 1600 375V600H0Z");
      }
      100% {
        transform: translate(-800px, 0);
        d: path("M0 365C33 365 98 366 173 378 276 396 334 434 399 446S551 444 600 420C660 388 736 365 800 365 833 365 898 366 973 378 1076 396 1134 434 1199 446S1351 444 1400 420C1460 388 1536 365 1600 365V600H0Z");
      }
    }

    .moving-path6 {
      animation: move6 150s linear -5s infinite;
      fill: #121212;
    }

    @keyframes move6 {
      0% {
        transform: translate(-800px, 0);
        d: path("M0 410C188 410 172 300 400 300S611 410 800 410C988 410 972 300 1200 300S1411 410 1600 410V600H0Z");
      }
      50% {
        transform: translate(-400px, -31px);
        d: path("M0 375C190 374 257 290 404 343S698 417 797 398C927 375 1031 259 1227 324S1509 374 1600 375V600H0Z");
      }
      100% {
        transform: translate(0, 0);
        d: path("M0 410C188 410 172 300 400 300S611 410 800 410C988 410 972 300 1200 300S1411 410 1600 410V600H0Z");
      }
    }

    .moving-path7 {
      animation: move7 140s linear -10s infinite;
      fill: #0D0D0D;
    }

    @keyframes move7 {
      0% {
        transform: translate(0, 0);
        d: path("M0 350C67 350 133 385 200 387S333 374 400 377 529 401 600 410 734 350 800 350C867 350 933 385 1000 387S1133 374 1200 377 1329 401 1400 410 1534 350 1600 350V600H0Z");
      }
      50% {
        transform: translate(-400px, -40px);
        d: path("M0 325C80 326 139 429 198 402S323 322 399 355 550 452 605 430 725 311 800 322C879 332 948 424 1003 402S1137 333 1204 360 1337 433 1401 427 1527 325 1600 325V600H0Z");
      }
      100% {
        transform: translate(-800px, 0);
        d: path("M0 350C67 350 133 385 200 387S333 374 400 377 529 401 600 410 734 350 800 350C867 350 933 385 1000 387S1133 374 1200 377 1329 401 1400 410 1534 350 1600 350V600H0Z");
      }
    }

    .moving-path8 {
      animation: move8 120s linear -15s infinite;
      fill: #080808;
    }

    @keyframes move8 {
      0% {
        transform: translate(-800px, 0);
        d: path("M0 443C67 443 133 396 200 391S333 398 400 403 533 408 600 415 733 443 800 443 933 396 1000 391 1133 398 1200 403 1333 408 1400 415 1533 443 1600 443V600H0Z");
      }
      50% {
        transform: translate(-400px, -36px);
        d: path("M0 443C65 406 122 406 202 440S333 398 433 352 533 408 593 445 720 436 782 400 933 426 979 442 1131 374 1226 368 1334 434 1400 415 1534 470 1600 443V600H0Z");
      }
      100% {
        transform: translate(0, 0);
        d: path("M0 443C67 443 133 396 200 391S333 398 400 403 533 408 600 415 733 443 800 443 933 396 1000 391 1133 398 1200 403 1333 408 1400 415 1533 443 1600 443V600H0Z");
      }
    }

    .moving-path9 {
      animation: move9 110s linear -20s infinite;
      fill: #030303;
    }

    @keyframes move9 {
      0% {
        transform: translate(0, 0);
        d: path("M0 450C67 450 133 462 200 456S333 432 400 420 533 403 600 407 733 450 800 450 933 462 1000 456 1133 432 1200 420 1333 403 1400 407 1533 450 1600 450V600H0Z");
      }
      50% {
        transform: translate(-400px, 28px);
        d: path("M0 475C43 457 112 460 164 492S321 431 418 451 525 391 583 368 738 458 809 479 922 464 1013 419 1139 440 1182 452 1323 391 1379 372 1525 500 1600 475V600H0Z");
      }
      100% {
        transform: translate(-800px, 0);
        d: path("M0 450C67 450 133 462 200 456S333 432 400 420 533 403 600 407 733 450 800 450 933 462 1000 456 1133 432 1200 420 1333 403 1400 407 1533 450 1600 450V600H0Z");
      }
    }

    .moving-path10 {
      animation: move10 100s linear -25s infinite;
      fill: #000000;
    }

    @keyframes move10 {
      0% {
        transform: translate(-800px, 0);
        d: path("M0 434C67 434 133 437 200 440S333 447 400 445 533 437 600 434 733 434 800 434 933 437 1000 440 1133 447 1200 445 1333 437 1400 434 1533 434 1600 434V600H0Z");
      }
      50% {
        transform: translate(-400px, -41px);
        d: path("M0 434C67 434 133 437 181 453S337 460 419 443 535 418 621 436 698 440 762 434 933 450 1019 438 1139 454 1209 456 1301 446 1381 435 1533 434 1600 434V600H0Z");
      }
      100% {
        transform: translate(0, 0);
        d: path("M0 434C67 434 133 437 200 440S333 447 400 445 533 437 600 434 733 434 800 434 933 437 1000 440 1133 447 1200 445 1333 437 1400 434 1533 434 1600 434V600H0Z");
      }
    }
  </style>

  <rect y="-0.5" width="800" height="500" fill="#121212"/>
  <path class="wave-path moving-path1" d="M0 170C100 170 110 275 221 240S357 344 471 330 670 170 800 170C900 170 910 275 1021 240S1157 344 1271 330 1470 170 1600 170V600H0Z"/>
  <path class="wave-path moving-path2" d="M0 255C50 255 100 325 170 300S300 240 370 235C435 230 500 280 570 300S765 255 800 255C850 255 900 325 970 300S1100 240 1170 235C1235 230 1300 280 1370 300S1565 255 1600 255V600H0Z"/>
  <path class="wave-path moving-path3" d="M0 600V330C80 330 98 421 197 421S296 372 362 372 487 425 555 421C664 424 720 330 800 330S898 421 997 421 1096 372 1162 372 1287 425 1355 421C1464 424 1520 330 1600 330V600Z"/>
  <path class="wave-path moving-path4" d="M0 235C40 235 105 246 168 269 271 309 335 340 400 350S535 335 600 305C670 280 731 235 800 235 840 235 905 246 968 269 1071 309 1135 340 1200 350S1335 335 1400 305C1470 280 1531 235 1600 235V600H0Z"/>
  <path class="wave-path moving-path5" d="M0 365C33 365 98 366 173 378 276 396 334 434 399 446S551 444 600 420C660 388 736 365 800 365 833 365 898 366 973 378 1076 396 1134 434 1199 446S1351 444 1400 420C1460 388 1536 365 1600 365V600H0Z"/>
  <path class="wave-path moving-path6" d="M0 410C188 410 172 300 400 300S611 410 800 410C988 410 972 300 1200 300S1411 410 1600 410V600H0Z"/>
  <path class="wave-path moving-path7" d="M0 350C67 350 133 385 200 387S333 374 400 377 529 401 600 410 734 350 800 350C867 350 933 385 1000 387S1133 374 1200 377 1329 401 1400 410 1534 350 1600 350V600H0Z"/>
  <path class="wave-path moving-path8" d="M0 443C67 443 133 396 200 391S333 398 400 403 533 408 600 415 733 443 800 443 933 396 1000 391 1133 398 1200 403 1333 408 1400 415 1533 443 1600 443V600H0Z"/>
  <path class="wave-path moving-path9" d="M0 450C67 450 133 462 200 456S333 432 400 420 533 403 600 407 733 450 800 450 933 462 1000 456 1133 432 1200 420 1333 403 1400 407 1533 450 1600 450V600H0Z"/>
  <path class="wave-path moving-path10" d="M0 434C67 434 133 437 200 440S333 447 400 445 533 437 600 434 733 434 800 434 933 437 1000 440 1133 447 1200 445 1333 437 1400 434 1533 434 1600 434V600H0Z"/>
</svg>
